<svg xmlns="http://www.w3.org/2000/svg" viewBox="0 0 512 512">
  <!-- Background circle -->
  <circle cx="256" cy="256" r="256" fill="#1A3C2A"/>
  <!-- Mountain silhouette -->
  <polygon points="80,380 200,180 256,240 360,140 432,380" fill="#2A5C40"/>
  <!-- Tree left -->
  <polygon points="130,380 155,280 145,290 170,220 160,230 175,180 140,180 155,130 120,230 130,220 105,290 115,280" fill="#1A3C2A"/>
  <!-- Tree right -->
  <polygon points="340,380 365,280 355,290 380,220 370,230 385,180 350,180 365,130 330,230 340,220 315,290 325,280" fill="#1A3C2A"/>
  <!-- Crosshair circle -->
  <circle cx="256" cy="230" r="60" fill="none" stroke="#D4A03C" stroke-width="6"/>
  <!-- Crosshair lines -->
  <line x1="256" y1="155" x2="256" y2="195" stroke="#D4A03C" stroke-width="5"/>
  <line x1="256" y1="265" x2="256" y2="305" stroke="#D4A03C" stroke-width="5"/>
  <line x1="181" y1="230" x2="221" y2="230" stroke="#D4A03C" stroke-width="5"/>
  <line x1="291" y1="230" x2="331" y2="230" stroke="#D4A03C" stroke-width="5"/>
  <!-- Center dot -->
  <circle cx="256" cy="230" r="4" fill="#D4A03C"/>
</svg>
